<?xml version="1.0" encoding="UTF-8"?>
<svg xmlns="http://www.w3.org/2000/svg" xmlns:xlink="http://www.w3.org/1999/xlink" width="206pt" height="206pt" viewBox="0 0 206 206" version="1.1">
<g id="surface1">
<path style=" stroke:none;fill-rule:nonzero;fill:rgb(0%,0%,0%);fill-opacity:1;" d="M 189.90625 128.75 L 189.90625 106.21875 C 189.90625 90.21875 176.9375 77.25 160.9375 77.25 C 144.9375 77.25 131.96875 90.21875 131.96875 106.21875 L 131.96875 112.472656 C 127.476562 110.054688 122.664062 108.285156 117.679688 107.222656 L 103 103.703125 L 103 97.234375 C 113.027344 90.707031 119.082031 79.558594 119.09375 67.59375 L 119.09375 57.9375 L 122.3125 57.9375 C 124.089844 57.9375 125.53125 56.496094 125.53125 54.71875 L 125.53125 41.84375 C 125.507812 22.296875 109.671875 6.460938 90.125 6.4375 L 77.25 6.4375 C 57.703125 6.460938 41.867188 22.296875 41.84375 41.84375 L 41.84375 54.71875 C 41.84375 56.496094 43.285156 57.9375 45.0625 57.9375 L 48.28125 57.9375 L 48.28125 67.59375 C 48.292969 79.558594 54.347656 90.707031 64.375 97.234375 L 64.375 103.703125 L 49.691406 107.222656 C 24.519531 112.726562 6.542969 134.960938 6.4375 160.726562 L 6.4375 199.5625 L 189.90625 199.5625 C 195.238281 199.5625 199.5625 195.238281 199.5625 189.90625 L 199.5625 138.40625 C 199.5625 133.074219 195.238281 128.75 189.90625 128.75 Z M 138.40625 106.21875 C 138.40625 93.773438 148.492188 83.6875 160.9375 83.6875 C 173.382812 83.6875 183.46875 93.773438 183.46875 106.21875 L 183.46875 128.75 L 180.25 128.75 L 180.25 106.21875 C 180.25 95.554688 171.601562 86.90625 160.9375 86.90625 C 150.273438 86.90625 141.625 95.554688 141.625 106.21875 L 141.625 128.75 L 138.40625 128.75 Z M 173.8125 128.75 L 148.0625 128.75 L 148.0625 106.21875 C 148.0625 99.109375 153.828125 93.34375 160.9375 93.34375 C 168.046875 93.34375 173.8125 99.109375 173.8125 106.21875 Z M 131.96875 128.75 C 126.636719 128.75 122.3125 133.074219 122.3125 138.40625 L 122.3125 189.90625 C 122.320312 191.007812 122.523438 192.09375 122.90625 193.125 L 106.863281 193.125 L 121.347656 114.910156 C 125.082031 116.144531 128.648438 117.839844 131.96875 119.953125 Z M 83.6875 119.992188 L 87.296875 122.890625 L 87.78125 127.226562 L 83.6875 128.578125 L 79.59375 127.21875 L 80.078125 122.882812 Z M 78.859375 133.761719 L 82.667969 135.023438 C 83.328125 135.242188 84.039062 135.242188 84.695312 135.023438 L 88.5 133.761719 L 93.1875 175.851562 L 83.6875 185.355469 L 74.179688 175.851562 Z M 89.304688 116.253906 L 100.289062 109.664062 L 107.4375 111.453125 L 99.046875 124.046875 Z M 48.28125 41.84375 C 48.300781 25.851562 61.257812 12.894531 77.25 12.875 L 90.125 12.875 C 106.117188 12.894531 119.074219 25.851562 119.09375 41.84375 L 119.09375 51.5 L 115.625 51.5 C 112.695312 51.507812 109.914062 50.171875 108.085938 47.878906 L 99.070312 36.613281 C 98.460938 35.851562 97.539062 35.40625 96.558594 35.40625 C 95.582031 35.40625 94.65625 35.851562 94.046875 36.613281 L 88.894531 43.050781 C 84.632812 48.402344 78.15625 51.515625 71.3125 51.5 L 48.28125 51.5 Z M 54.71875 67.59375 L 54.71875 57.9375 L 71.3125 57.9375 C 80.117188 57.960938 88.449219 53.953125 93.933594 47.0625 L 96.5625 43.773438 L 103.058594 51.898438 C 105.460938 54.902344 108.867188 56.945312 112.65625 57.640625 L 112.65625 67.59375 C 112.65625 83.59375 99.6875 96.5625 83.6875 96.5625 C 67.6875 96.5625 54.71875 83.59375 54.71875 67.59375 Z M 83.6875 103 C 88.09375 102.992188 92.460938 102.160156 96.5625 100.539062 L 96.5625 104.40625 L 83.6875 112.128906 L 70.8125 104.40625 L 70.8125 100.539062 C 74.914062 102.160156 79.28125 102.992188 83.6875 103 Z M 67.082031 109.664062 L 78.0625 116.253906 L 68.324219 124.046875 L 59.929688 111.453125 Z M 12.875 160.726562 C 12.96875 139.929688 26.304688 121.5 46.027344 114.910156 L 60.511719 193.125 L 45.0625 193.125 L 45.0625 157.71875 C 45.0625 155.941406 43.621094 154.5 41.84375 154.5 C 40.066406 154.5 38.625 155.941406 38.625 157.71875 L 38.625 193.125 L 12.875 193.125 Z M 67.054688 193.125 L 52.246094 113.257812 L 53.238281 113.042969 L 64.898438 130.539062 C 65.398438 131.289062 66.195312 131.792969 67.085938 131.929688 C 67.253906 131.957031 67.421875 131.96875 67.59375 131.96875 C 68.324219 131.96875 69.035156 131.71875 69.605469 131.265625 L 72.96875 128.570312 L 67.613281 176.671875 C 67.503906 177.648438 67.84375 178.617188 68.539062 179.304688 L 81.414062 192.179688 C 82.667969 193.4375 84.707031 193.4375 85.960938 192.179688 L 98.835938 179.304688 C 99.53125 178.617188 99.871094 177.648438 99.761719 176.671875 L 94.40625 128.570312 L 97.769531 131.265625 C 98.339844 131.71875 99.050781 131.96875 99.78125 131.96875 C 99.945312 131.96875 100.109375 131.953125 100.273438 131.929688 C 101.164062 131.792969 101.960938 131.289062 102.460938 130.539062 L 114.121094 113.046875 L 115.109375 113.257812 L 100.320312 193.125 Z M 193.125 189.90625 C 193.125 191.683594 191.683594 193.125 189.90625 193.125 L 131.96875 193.125 C 130.191406 193.125 128.75 191.683594 128.75 189.90625 L 128.75 138.40625 C 128.75 136.628906 130.191406 135.1875 131.96875 135.1875 L 189.90625 135.1875 C 191.683594 135.1875 193.125 136.628906 193.125 138.40625 Z M 193.125 189.90625 "/>
<path style=" stroke:none;fill-rule:nonzero;fill:rgb(0%,0%,0%);fill-opacity:1;" d="M 160.9375 148.0625 C 156.242188 148.054688 152.21875 151.433594 151.425781 156.0625 C 150.628906 160.695312 153.289062 165.222656 157.71875 166.78125 L 157.71875 183.46875 C 157.71875 185.246094 159.160156 186.6875 160.9375 186.6875 C 162.714844 186.6875 164.15625 185.246094 164.15625 183.46875 L 164.15625 166.78125 C 168.585938 165.222656 171.246094 160.695312 170.449219 156.0625 C 169.65625 151.433594 165.632812 148.054688 160.9375 148.0625 Z M 160.9375 160.9375 C 159.160156 160.9375 157.71875 159.496094 157.71875 157.71875 C 157.71875 155.941406 159.160156 154.5 160.9375 154.5 C 162.714844 154.5 164.15625 155.941406 164.15625 157.71875 C 164.15625 159.496094 162.714844 160.9375 160.9375 160.9375 Z M 160.9375 160.9375 "/>
</g>
</svg>
