<?xml version="1.0" encoding="UTF-8"?>
<svg xmlns="http://www.w3.org/2000/svg" xmlns:xlink="http://www.w3.org/1999/xlink" width="206pt" height="206pt" viewBox="0 0 206 206" version="1.1">
<g id="surface1">
<path style=" stroke:none;fill-rule:nonzero;fill:rgb(0%,0%,0%);fill-opacity:1;" d="M 169.40625 166.910156 C 167.742188 166.910156 166.390625 168.257812 166.390625 169.929688 L 166.390625 198.296875 C 166.390625 199.21875 165.640625 199.964844 164.726562 199.964844 L 148.503906 199.964844 L 148.503906 140.539062 C 148.503906 138.875 147.152344 137.523438 145.484375 137.523438 C 143.820312 137.523438 142.46875 138.875 142.46875 140.539062 L 142.46875 199.964844 L 109.804688 199.964844 L 119.277344 189.542969 C 120.3125 188.40625 120.796875 186.78125 120.582031 185.203125 C 120.578125 185.171875 120.570312 185.140625 120.570312 185.109375 L 111.546875 131.8125 L 113.976562 128.15625 C 115.320312 129.109375 116.355469 130.03125 118.296875 130.03125 C 120.273438 130.03125 122.117188 128.921875 123.023438 127.101562 L 132.539062 108.03125 L 154.21875 116.429688 C 155 116.765625 166.390625 121.890625 166.390625 135.433594 L 166.390625 155.84375 C 166.390625 157.507812 167.742188 158.859375 169.40625 158.859375 C 171.074219 158.859375 172.425781 157.511719 172.425781 155.84375 L 172.425781 135.433594 C 172.425781 117.59375 157.148438 111.109375 156.5 110.839844 C 156.480469 110.832031 156.460938 110.824219 156.441406 110.816406 L 120.363281 96.84375 L 120.363281 88.382812 C 126.09375 83.929688 130.066406 77.320312 131.0625 69.78125 C 133.921875 69.582031 136.570312 68.515625 138.738281 66.65625 C 141.5625 64.222656 143.1875 60.683594 143.1875 56.945312 C 143.1875 53.84375 142.070312 50.882812 140.074219 48.578125 L 140.074219 37.398438 C 140.074219 16.777344 123.296875 0 102.675781 0 C 82.054688 0 65.273438 16.777344 65.273438 37.398438 L 65.273438 48.871094 C 63.261719 51.15625 62.164062 53.96875 62.164062 56.945312 C 62.164062 60.6875 63.789062 64.222656 66.617188 66.65625 C 68.777344 68.515625 71.429688 69.582031 74.28125 69.78125 C 75.289062 77.460938 79.378906 84.3125 85.59375 88.828125 L 85.59375 96.84375 L 49.558594 110.816406 C 49.539062 110.820312 49.519531 110.828125 49.5 110.835938 C 48.851562 111.105469 33.574219 117.59375 33.574219 135.433594 L 33.574219 198.296875 C 33.574219 202.542969 37.03125 206 41.273438 206 L 70.023438 206 C 71.695312 206 73.042969 204.648438 73.042969 202.980469 C 73.042969 201.3125 71.695312 199.960938 70.023438 199.960938 L 63.53125 199.960938 L 63.53125 140.539062 C 63.53125 138.875 62.183594 137.523438 60.515625 137.523438 C 58.851562 137.523438 57.5 138.875 57.5 140.539062 L 57.5 199.964844 L 41.277344 199.964844 C 40.359375 199.964844 39.609375 199.21875 39.609375 198.296875 L 39.609375 135.433594 C 39.609375 121.84375 51.074219 116.730469 51.78125 116.429688 L 73.4375 108.03125 L 82.953125 127.101562 C 83.867188 128.929688 85.710938 130.03125 87.683594 130.03125 C 89.617188 130.03125 90.640625 129.125 92.003906 128.15625 L 94.4375 131.8125 L 85.414062 185.113281 C 85.40625 185.140625 85.40625 185.171875 85.398438 185.203125 C 85.179688 186.78125 85.671875 188.40625 86.703125 189.546875 L 96.179688 199.964844 L 84.109375 199.964844 C 82.445312 199.964844 81.09375 201.316406 81.09375 202.984375 C 81.09375 204.648438 82.445312 206 84.109375 206 L 164.726562 206 C 168.972656 206 172.429688 202.546875 172.429688 198.296875 L 172.429688 169.929688 C 172.425781 168.257812 171.074219 166.910156 169.40625 166.910156 Z M 126.890625 105.84375 L 118.015625 123.625 C 117.796875 123.46875 113.09375 120.125 107.351562 116.046875 C 109.84375 112.96875 106.925781 116.570312 118.304688 102.519531 Z M 109.054688 124.660156 L 106.75 128.125 L 99.226562 128.125 L 96.925781 124.660156 L 102.992188 120.351562 Z M 91.632812 97.820312 L 91.632812 92.171875 C 95.296875 93.648438 99.214844 94.335938 103.039062 94.335938 C 107 94.335938 110.875 93.492188 114.328125 91.984375 L 114.328125 97.84375 L 102.992188 111.835938 Z M 137.148438 56.945312 C 137.148438 58.921875 136.296875 60.796875 134.804688 62.078125 C 133.8125 62.929688 132.625 63.46875 131.316406 63.679688 L 131.316406 50.210938 C 134.785156 50.777344 137.148438 53.65625 137.148438 56.945312 Z M 74.03125 63.679688 C 70.527344 63.113281 68.199219 60.210938 68.199219 56.945312 C 68.199219 53.71875 70.875 51.09375 74.03125 50.367188 Z M 74.195312 44.21875 C 73.234375 44.328125 72.132812 44.585938 71.3125 44.867188 L 71.3125 37.398438 C 71.3125 20.105469 85.382812 6.035156 102.675781 6.035156 C 119.96875 6.035156 134.039062 20.105469 134.039062 37.398438 L 134.039062 44.65625 C 133.164062 44.390625 132.25 44.214844 131.320312 44.132812 C 131.320312 41.21875 131.34375 41.78125 121.820312 31.539062 C 120.066406 29.660156 117.167969 29.265625 114.960938 30.707031 C 104.449219 37.574219 91.625 41.023438 79.792969 40.171875 C 77.195312 39.980469 74.832031 41.6875 74.195312 44.21875 Z M 80.070312 66.058594 L 80.070312 46.242188 C 93.09375 47.003906 106.75 43.132812 117.785156 36.070312 C 122.15625 40.757812 124.519531 43.21875 125.28125 44.15625 C 125.28125 46.523438 125.28125 63.347656 125.28125 66.058594 C 125.28125 78.308594 115.292969 88.296875 103.039062 88.296875 C 89.28125 88.296875 80.070312 77.625 80.070312 66.058594 Z M 87.960938 123.625 L 79.089844 105.84375 L 87.65625 102.523438 L 98.617188 116.054688 C 93.046875 120.015625 88.46875 123.265625 87.960938 123.625 Z M 91.421875 185.765625 L 100.15625 134.15625 L 105.820312 134.15625 L 114.554688 185.765625 L 102.988281 198.484375 Z M 91.421875 185.765625 "/>
</g>
</svg>
