<svg id="Capa_1" enable-background="new 0 0 512.019 512.019" height="512" viewBox="0 0 512.019 512.019" width="512" xmlns="http://www.w3.org/2000/svg"><g><path d="m270.009 125.021c0-53.688-31.793-102.264-80.996-123.753-9.892-4.321-21.004 2.936-21.004 13.746v91.196l-33 11-33-11v-91.196c0-10.796-11.1-18.071-21.004-13.746-49.203 21.489-80.996 70.065-80.996 123.753 0 50.327 27.951 96.171 72 119.416v252.577c0 8.284 6.716 15 15 15h96c8.284 0 15-6.716 15-15v-252.577c44.049-23.245 72-69.089 72-119.416z"/><path d="m497.009 234.019h-28.5l7.11 64h36.39v-49c0-8.281-6.72-15-15-15z"/><path d="m228.009 426.019h232.22l22.39-22.39c2.81-2.82 4.39-6.63 4.39-10.61v-65h-259zm149-63h48c8.28 0 15 6.72 15 15s-6.72 15-15 15h-48c-8.28 0-15-6.72-15-15s6.72-15 15-15z"/><path d="m345.009 497.019c0 8.28 6.72 15 15 15h80c8.28 0 15-6.72 15-15v-41h-110z"/><path d="m228.009 261.349v36.67h217.43l-11.56-103.97c-2.53-22.82-21.76-40.03-44.72-40.03h-91.7c-7.71 43.56-32.62 82.26-69.45 107.33z"/></g></svg>